<?xml version="1.0" standalone="no"?><svg xmlns="http://www.w3.org/2000/svg" viewBox="0 0 1440 320"><path fill="#f3f4f5" fill-opacity="1" d="M0,32L34.3,26.7C68.6,21,137,11,206,21.3C274.3,32,343,64,411,90.7C480,117,549,139,617,128C685.7,117,754,75,823,53.3C891.4,32,960,32,1029,69.3C1097.1,107,1166,181,1234,181.3C1302.9,181,1371,107,1406,69.3L1440,32L1440,320L1405.7,320C1371.4,320,1303,320,1234,320C1165.7,320,1097,320,1029,320C960,320,891,320,823,320C754.3,320,686,320,617,320C548.6,320,480,320,411,320C342.9,320,274,320,206,320C137.1,320,69,320,34,320L0,320Z"></path></svg>