<?xml version="1.0" encoding="UTF-8"?>
<svg width="118px" height="69px" viewBox="0 0 118 69" version="1.1" xmlns="http://www.w3.org/2000/svg" xmlns:xlink="http://www.w3.org/1999/xlink">
    <!-- Generator: Sketch 55 (78076) - https://sketchapp.com -->
    <title>Group</title>
    <desc>Created with Sketch.</desc>
    <defs>
        <linearGradient x1="23.4814239%" y1="32.978115%" x2="58.4894073%" y2="65.7805899%" id="linearGradient-1">
            <stop stop-color="#1C313A" offset="0%"></stop>
            <stop stop-color="#5B5B5B" offset="100%"></stop>
        </linearGradient>
    </defs>
    <g id="Page-1" stroke="none" stroke-width="1" fill="none" fill-rule="evenodd">
        <g id="Artboard" transform="translate(-224.000000, -159.000000)" fill="url(#linearGradient-1)" fill-rule="nonzero">
            <g id="Group" transform="translate(224.000000, 159.000000)">
                <path d="M52.2687467,68.8381944 L37.462963,68.8381944 L37.462963,68.6508796 C40.8346296,64.2489815 42.0521759,58.0675926 39.1487963,49.9193981 L36.7137037,42.98875 L15.3598148,42.98875 L13.6739815,47.577963 C9.92768519,58.16125 12.2691204,64.9045833 17.232963,68.6508796 L17.232963,68.8381944 L-8.52651283e-14,68.8381944 L-8.52651283e-14,68.6508796 C4.02726852,64.8109259 7.11796296,58.9105093 10.0213426,51.1369444 L28.4718519,4.61852778e-14 L33.840625,4.61852778e-14 L47.6438995,3.19744231e-14 L47.6438995,0.187314815 C43.8039458,4.58921296 43.5229736,10.9579167 46.0517236,18.9187963 L53.9096191,44.0204068 L56.3455467,50.7313874 L67.4056125,19.8553704 L66.5626958,17.232963 C64.4085755,10.4896296 62.0671403,4.21458333 58.2271866,0.187314815 L58.2271866,3.19744231e-14 L86.8863532,3.19744231e-14 L86.8863532,0.187314815 C83.1400569,4.58921296 82.6717699,10.9579167 85.2005199,18.9187963 L95.5028347,50.4813426 L104.868575,20.9792593 C108.240242,10.583287 106.273437,3.8399537 101.122279,0.187314815 L101.122279,3.19744231e-14 L117.980613,3.19744231e-14 L117.980613,0.187314815 C113.953344,4.02726852 111.143622,10.0213426 108.614872,17.8885648 L92.3184829,68.8381944 L83.608344,68.8381944 L68.7168162,23.7889815 L52.4204273,68.8381944 L52.2687467,68.8381944 Z M26.2240741,13.0183796 L16.1090741,40.8346296 L35.9644444,40.8346296 L26.2240741,13.0183796 Z" id="Combined-Shape"></path>
            </g>
        </g>
    </g>
</svg>